<svg xmlns="http://www.w3.org/2000/svg" width="100%" height="100%" viewBox="0 0 200 200" fill="none" preserveAspectRatio="xMidYMid slice">
  <!-- Background -->
  <rect width="2000" height="2000" fill="#0e1217" />
  
  <!-- Grid pattern -->
  <pattern id="grid" width="20" height="20" patternUnits="userSpaceOnUse">
    <!-- Horizontal dashed line -->
    <line x1="0" y1="10" x2="20" y2="10" stroke="#a8b3cf" stroke-width="0.1" stroke-dasharray="1,1" />
    <!-- Vertical dashed line -->
    <line x1="10" y1="0" x2="10" y2="20" stroke="#a8b3cf" stroke-width="0.1" stroke-dasharray="1,1" />
    <!-- Dots -->
    <circle cx="10" cy="10" r="0.5" fill="#a8b3cf" />
  </pattern>
  <rect width="2000" height="2000" fill="url(#grid)" />

  <!-- 50 randomly placed stars -->
  <g fill="#a8b3cf">
    <polygon points="10,20 10.5,21.1 11.5,21.1 11,21.8 11.2,22.8 10,22.2 8.8,22.8 9,21.8 8.5,21.1 9.5,21.1" />
    <polygon points="25,35 25.5,36.1 26.5,36.1 26,36.8 26.2,37.8 25,37.2 23.8,37.8 24,36.8 23.5,36.1 24.5,36.1" />
    <polygon points="45,15 45.5,16.1 46.5,16.1 46,16.8 46.2,17.8 45,17.2 43.8,17.8 44,16.8 43.5,16.1 44.5,16.1" />
    <polygon points="60,45 60.5,46.1 61.5,46.1 61,46.8 61.2,47.8 60,47.2 58.8,47.8 59,46.8 58.5,46.1 59.5,46.1" />
    <polygon points="75,65 75.5,66.1 76.5,66.1 76,66.8 76.2,67.8 75,67.2 73.8,67.8 74,66.8 73.5,66.1 74.5,66.1" />
    <polygon points="85,85 85.5,86.1 86.5,86.1 86,86.8 86.2,87.8 85,87.2 83.8,87.8 84,86.8 83.5,86.1 84.5,86.1" />
    <polygon points="95,105 95.5,106.1 96.5,106.1 96,106.8 96.2,107.8 95,107.2 93.8,107.8 94,106.8 93.5,106.1 94.5,106.1" />
    <polygon points="105,125 105.5,126.1 106.5,126.1 106,126.8 106.2,127.8 105,127.2 103.8,127.8 104,126.8 103.5,126.1 104.5,126.1" />
    <polygon points="115,145 115.5,146.1 116.5,146.1 116,146.8 116.2,147.8 115,147.2 113.8,147.8 114,146.8 113.5,146.1 114.5,146.1" />
    <polygon points="125,165 125.5,166.1 126.5,166.1 126,166.8 126.2,167.8 125,167.2 123.8,167.8 124,166.8 123.5,166.1 124.5,166.1" />
    <polygon points="135,185 135.5,186.1 136.5,186.1 136,186.8 136.2,187.8 135,187.2 133.8,187.8 134,186.8 133.5,186.1 134.5,186.1" />
    <polygon points="145,5 145.5,6.1 146.5,6.1 146,6.8 146.2,7.8 145,7.2 143.8,7.8 144,6.8 143.5,6.1 144.5,6.1" />
    <polygon points="155,25 155.5,26.1 156.5,26.1 156,26.8 156.2,27.8 155,27.2 153.8,27.8 154,26.8 153.5,26.1 154.5,26.1" />
    <polygon points="165,55 165.5,56.1 166.5,56.1 166,56.8 166.2,57.8 165,57.2 163.8,57.8 164,56.8 163.5,56.1 164.5,56.1" />
    <polygon points="175,75 175.5,76.1 176.5,76.1 176,76.8 176.2,77.8 175,77.2 173.8,77.8 174,76.8 173.5,76.1 174.5,76.1" />
    <polygon points="185,95 185.5,96.1 186.5,96.1 186,96.8 186.2,97.8 185,97.2 183.8,97.8 184,96.8 183.5,96.1 184.5,96.1" />
    <polygon points="195,115 195.5,116.1 196.5,116.1 196,116.8 196.2,117.8 195,117.2 193.8,117.8 194,116.8 193.5,116.1 194.5,116.1" />
    <polygon points="5,135 5.5,136.1 6.5,136.1 6,136.8 6.2,137.8 5,137.2 3.8,137.8 4,136.8 3.5,136.1 4.5,136.1" />
    <polygon points="15,155 15.5,156.1 16.5,156.1 16,156.8 16.2,157.8 15,157.2 13.8,157.8 14,156.8 13.5,156.1 14.5,156.1" />
    <polygon points="35,175 35.5,176.1 36.5,176.1 36,176.8 36.2,177.8 35,177.2 33.8,177.8 34,176.8 33.5,176.1 34.5,176.1" />
    <polygon points="55,195 55.5,196.1 56.5,196.1 56,196.8 56.2,197.8 55,197.2 53.8,197.8 54,196.8 53.5,196.1 54.5,196.1" />
    <polygon points="65,10 65.5,11.1 66.5,11.1 66,11.8 66.2,12.8 65,12.2 63.8,12.8 64,11.8 63.5,11.1 64.5,11.1" />
    <polygon points="80,30 80.5,31.1 81.5,31.1 81,31.8 81.2,32.8 80,32.2 78.8,32.8 79,31.8 78.5,31.1 79.5,31.1" />
    <polygon points="90,50 90.5,51.1 91.5,51.1 91,51.8 91.2,52.8 90,52.2 88.8,52.8 89,51.8 88.5,51.1 89.5,51.1" />
    <polygon points="100,70 100.5,71.1 101.5,71.1 101,71.8 101.2,72.8 100,72.2 98.8,72.8 99,71.8 98.5,71.1 99.5,71.1" />
    <polygon points="110,90 110.5,91.1 111.5,91.1 111,91.8 111.2,92.8 110,92.2 108.8,92.8 109,91.8 108.5,91.1 109.5,91.1" />
    <polygon points="120,110 120.5,111.1 121.5,111.1 121,111.8 121.2,112.8 120,112.2 118.8,112.8 119,111.8 118.5,111.1 119.5,111.1" />
    <polygon points="130,130 130.5,131.1 131.5,131.1 131,131.8 131.2,132.8 130,132.2 128.8,132.8 129,131.8 128.5,131.1 129.5,131.1" />
    <polygon points="140,150 140.5,151.1 141.5,151.1 141,151.8 141.2,152.8 140,152.2 138.8,152.8 139,151.8 138.5,151.1 139.5,151.1" />
    <polygon points="150,170 150.5,171.1 151.5,171.1 151,171.8 151.2,172.8 150,172.2 148.8,172.8 149,171.8 148.5,171.1 149.5,171.1" />
    <polygon points="160,190 160.5,191.1 161.5,191.1 161,191.8 161.2,192.8 160,192.2 158.8,192.8 159,191.8 158.5,191.1 159.5,191.1" />
    <polygon points="20,40 20.5,41.1 21.5,41.1 21,41.8 21.2,42.8 20,42.2 18.8,42.8 19,41.8 18.5,41.1 19.5,41.1" />
    <polygon points="40,60 40.5,61.1 41.5,61.1 41,61.8 41.2,62.8 40,62.2 38.8,62.8 39,61.8 38.5,61.1 39.5,61.1" />
    <polygon points="50,80 50.5,81.1 51.5,81.1 51,81.8 51.2,82.8 50,82.2 48.8,82.8 49,81.8 48.5,81.1 49.5,81.1" />
    <polygon points="70,100 70.5,101.1 71.5,101.1 71,101.8 71.2,102.8 70,102.2 68.8,102.8 69,101.8 68.5,101.1 69.5,101.1" />
    <polygon points="90,120 90.5,121.1 91.5,121.1 91,121.8 91.2,122.8 90,122.2 88.8,122.8 89,121.8 88.5,121.1 89.5,121.1" />
    <polygon points="110,140 110.5,141.1 111.5,141.1 111,141.8 111.2,142.8 110,142.2 108.8,142.8 109,141.8 108.5,141.1 109.5,141.1" />
    <polygon points="130,160 130.5,161.1 131.5,161.1 131,161.8 131.2,162.8 130,162.2 128.8,162.8 129,161.8 128.5,161.1 129.5,161.1" />
    <polygon points="150,180 150.5,181.1 151.5,181.1 151,181.8 151.2,182.8 150,182.2 148.8,182.8 149,181.8 148.5,181.1 149.5,181.1" />
    <polygon points="170,20 170.5,21.1 171.5,21.1 171,21.8 171.2,22.8 170,22.2 168.8,22.8 169,21.8 168.5,21.1 169.5,21.1" />
    <polygon points="190,40 190.5,41.1 191.5,41.1 191,41.8 191.2,42.8 190,42.2 188.8,42.8 189,41.8 188.5,41.1 189.5,41.1" />
    <polygon points="10,60 10.5,61.1 11.5,61.1 11,61.8 11.2,62.8 10,62.2 8.8,62.8 9,61.8 8.5,61.1 9.5,61.1" />
    <polygon points="30,80 30.5,81.1 31.5,81.1 31,81.8 31.2,82.8 30,82.2 28.8,82.8 29,81.8 28.5,81.1 29.5,81.1" />
    <polygon points="50,100 50.5,101.1 51.5,101.1 51,101.8 51.2,102.8 50,102.2 48.8,102.8 49,101.8 48.5,101.1 49.5,101.1" />
    <polygon points="70,120 70.5,121.1 71.5,121.1 71,121.8 71.2,122.8 70,122.2 68.8,122.8 69,121.8 68.5,121.1 69.5,121.1" />
    <polygon points="90,140 90.5,141.1 91.5,141.1 91,141.8 91.2,142.8 90,142.2 88.8,142.8 89,141.8 88.5,141.1 89.5,141.1" />
    <polygon points="110,160 110.5,161.1 111.5,161.1 111,161.8 111.2,162.8 110,162.2 108.8,162.8 109,161.8 108.5,161.1 109.5,161.1" />
    <polygon points="130,180 130.5,181.1 131.5,181.1 131,181.8 131.2,182.8 130,182.2 128.8,182.8 129,181.8 128.5,181.1 129.5,181.1" />
    <polygon points="150,20 150.5,21.1 151.5,21.1 151,21.8 151.2,22.8 150,22.2 148.8,22.8 149,21.8 148.5,21.1 149.5,21.1" />
    <polygon points="170,40 170.5,41.1 171.5,41.1 171,41.8 171.2,42.8 170,42.2 168.8,42.8 169,41.8 168.5,41.1 169.5,41.1" />
    <polygon points="190,60 190.5,61.1 191.5,61.1 191,61.8 191.2,62.8 190,62.2 188.8,62.8 189,61.8 188.5,61.1 189.5,61.1" />
  </g>
</svg>